<svg width="28" height="28" viewBox="0 0 28 28" fill="none" xmlns="http://www.w3.org/2000/svg">
    <path d="M27.4438 7.33855C27.1243 6.21491 26.2463 5.3288 25.1332 5.00602C22.9945 4.4 14 4.4 14 4.4C14 4.4 5.00547 4.4 2.86684 5.00602C1.75367 5.3288 0.875703 6.21491 0.556172 7.33855C-0.040625 9.49872 -0.040625 14 -0.040625 14C-0.040625 14 -0.040625 18.5013 0.556172 20.6614C0.875703 21.7851 1.75367 22.6712 2.86684 22.994C5.00547 23.6 14 23.6 14 23.6C14 23.6 22.9945 23.6 25.1332 22.994C26.2463 22.6712 27.1243 21.7851 27.4438 20.6614C28.0406 18.5013 28.0406 14 28.0406 14C28.0406 14 28.0406 9.49872 27.4438 7.33855Z" fill="#FF0000"/>
    <path d="M11.1406 18.2001L18.4844 14.0001L11.1406 9.80005V18.2001Z" fill="white"/>
</svg>