<?xml version="1.0" encoding="UTF-8"?>
<svg version="1.1" xmlns="http://www.w3.org/2000/svg" width="20" height="20">
<path d="M0 0 C3.89912018 1.42372547 7.4775391 3.34161967 11.125 5.3125 C13.28158165 6.43415946 15.4391566 7.55391094 17.59765625 8.671875 C18.67805176 9.23712891 19.75844727 9.80238281 20.87158203 10.38476562 C25.38658766 12.71590947 29.96717712 14.89521434 34.5625 17.0625 C45.11849318 22.07415845 55.62340174 27.18819514 66.125 32.3125 C78.85403765 38.5224449 91.59182114 44.71286953 104.35009766 50.86254883 C110.60371014 53.87722979 116.854978 56.89656835 123.1015625 59.92578125 C123.79110519 60.2601268 124.48064789 60.59447235 125.19108582 60.93894958 C128.67519338 62.62870567 132.15856491 64.31995832 135.64086914 66.01342773 C141.85484518 69.03349687 148.0729411 72.04298046 154.31704712 75.00036621 C157.01116496 76.27644606 159.70259748 77.5581392 162.39404297 78.83984375 C163.65900632 79.43996889 164.92542004 80.0370477 166.19335938 80.63085938 C167.94106896 81.44945433 169.68355518 82.27917334 171.42578125 83.109375 C172.40973877 83.57311523 173.39369629 84.03685547 174.4074707 84.51464844 C177.14409515 86.0825572 179.00594363 87.55829832 181 90 C181.77403846 95.41826923 181.77403846 95.41826923 181 98 C177.18128784 102.71890599 173.68010458 103.99055233 167.8828125 104.921875 C166.60762253 105.15194244 166.60762253 105.15194244 165.30667114 105.38665771 C163.33981251 105.73886812 161.37125986 106.08169378 159.40148926 106.41723633 C155.60563871 107.06756436 151.81586892 107.74945662 148.02636719 108.43554688 C139.76222801 109.92745182 131.49221184 111.38490903 123.22106934 112.83740234 C120.05579621 113.39407143 116.89105953 113.9537582 113.72631645 114.51343155 C110.67089209 115.05343933 107.61517504 115.59177493 104.5593605 116.12957001 C103.10398179 116.38587105 101.64868663 116.64264705 100.19347763 116.89990997 C98.17989905 117.25558814 96.16588781 117.60881435 94.15185547 117.96191406 C92.43698441 118.2635849 92.43698441 118.2635849 90.68746948 118.5713501 C88 119 88 119 86 119 C85.89381348 119.83023682 85.78762695 120.66047363 85.67822266 121.51586914 C84.91196114 125.45226875 83.61307106 129.03122098 82.1484375 132.74609375 C81.85742661 133.49820129 81.56641571 134.25030884 81.2665863 135.02520752 C80.3083119 137.4981839 79.34194922 139.96790392 78.375 142.4375 C77.35940097 145.04535885 76.34527191 147.65378597 75.33131409 150.26228333 C74.62875509 152.06934816 73.92548764 153.87613771 73.22154236 155.68266296 C70.70811198 162.14256698 68.24773151 168.62110294 65.80859375 175.109375 C64.80187382 177.77454447 63.79421541 180.43935701 62.78619385 183.10403442 C62.13963187 184.81953322 61.49665581 186.53638802 60.85736084 188.25460815 C59.96287839 190.65663706 59.05517891 193.05328058 58.14453125 195.44921875 C57.88465927 196.157901 57.62478729 196.86658325 57.35704041 197.59674072 C55.84332095 201.53541632 54.3868694 204.41678085 51 207 C45.58173077 207.77403846 45.58173077 207.77403846 43 207 C38.67018191 203.34589208 37.11153054 200.37542239 35.67578125 194.9375 C35.48778458 194.24523315 35.2997879 193.55296631 35.10609436 192.83972168 C34.49208169 190.5637877 33.90219827 188.28234304 33.3125 186 C32.88843291 184.40778912 32.46278837 182.81599761 32.03564453 181.22460938 C31.14043867 177.88100924 30.25452257 174.53512988 29.37451172 171.1875 C27.99554033 165.95864799 26.56640851 160.74426511 25.12890625 155.53125 C24.43497552 153.00551363 23.74168065 150.47960376 23.04867554 147.95361328 C22.60091674 146.32281793 22.15221225 144.69228192 21.70254517 143.06201172 C21.07524975 140.78227771 20.45469723 138.50081328 19.8359375 136.21875 C19.64894791 135.54428833 19.46195831 134.86982666 19.26930237 134.17492676 C18.39995956 130.94380647 18 128.38633349 18 125 C17.38125 124.71125 16.7625 124.4225 16.125 124.125 C14 123 14 123 12 121 C12.00453772 119.08429098 12.09980895 117.1686703 12.23266602 115.25756836 C12.35281898 105.70771998 9.75654409 97.08121609 7.15434074 87.95492744 C6.26009807 84.81841794 5.38822296 81.67639537 4.52137756 78.5322113 C2.68007957 71.86998346 0.80950374 65.21615194 -1.0625 58.5625 C-3.23599509 50.82191924 -5.39729118 43.0781485 -7.53814507 35.32847404 C-8.39688368 32.23915443 -9.27245947 29.1549492 -10.14918518 26.07069397 C-10.67580282 24.17567245 -11.20171472 22.28045462 -11.72680664 20.38500977 C-11.97352112 19.53450043 -12.2202356 18.68399109 -12.47442627 17.80770874 C-13.82464627 12.85665187 -14.22652654 9.11026868 -13 4 C-9.91045605 -1.02050892 -5.37247461 -0.78713703 0 0 Z M10 26 C10.5768674 31.34940952 11.48831786 36.32940166 12.91088867 41.53442383 C13.10338573 42.24464219 13.2958828 42.95486055 13.4942131 43.68660069 C14.13028044 46.02819144 14.77408633 48.36757855 15.41796875 50.70703125 C15.87250738 52.37427103 16.32656265 54.04164265 16.78016663 55.70913696 C17.9925233 60.16035117 19.21163533 64.60968737 20.43238831 69.05860519 C21.69158269 73.6508912 22.94559083 78.24459313 24.20019531 82.83813477 C25.70587326 88.34919511 27.21247704 93.85999809 28.72232056 99.36991882 C31.31834371 108.8437857 33.9052514 118.3199494 36.46846008 127.80274963 C37.76442892 132.59647265 39.0652849 137.38886044 40.36709595 142.18099976 C40.9538433 144.34515666 41.53847247 146.50988901 42.12094116 148.67520142 C42.91297647 151.61722346 43.71316747 154.55690047 44.515625 157.49609375 C44.74169937 158.3441861 44.96777374 159.19227844 45.20069885 160.06607056 C46.33652629 164.44413637 46.33652629 164.44413637 49 168 C49.24167908 167.35821808 49.48335815 166.71643616 49.73236084 166.0552063 C52.02581776 159.96545302 54.32026288 153.87607308 56.61577988 147.78709602 C57.79549312 144.65774345 58.97473294 141.52821441 60.15332031 138.3984375 C61.5127189 134.78870256 62.87342618 131.17946321 64.234375 127.5703125 C64.65120544 126.46261505 65.06803589 125.3549176 65.49749756 124.21365356 C66.2878514 122.11912637 67.08612451 120.02756516 67.89343262 117.93951416 C68.61997227 116.00951548 69.30376027 114.06277111 69.9395752 112.10101318 C72.16775198 105.56935058 72.16775198 105.56935058 75.85961914 103.04370117 C77.70315552 102.48397827 77.70315552 102.48397827 80 102 C81.49332352 101.67523178 81.49332352 101.67523178 83.01681519 101.34390259 C86.74963681 100.59691796 90.49382674 99.94018933 94.24609375 99.30078125 C95.62627555 99.05919427 97.00632448 98.81684706 98.38624573 98.57377625 C101.99670892 97.93988289 105.60886999 97.31625241 109.22149658 96.69482422 C112.91633478 96.05735854 116.60945385 95.41008987 120.30273438 94.76367188 C127.5335195 93.49957531 134.76612866 92.24632814 142 91 C139.58748204 88.48674902 137.4020977 87.01960811 134.265625 85.46875 C133.31228271 84.99429443 132.35894043 84.51983887 131.37670898 84.03100586 C130.34489502 83.52577393 129.31308105 83.02054199 128.25 82.5 C127.16726807 81.9644751 126.08453613 81.4289502 124.96899414 80.87719727 C117.24243238 77.06760039 109.48043209 73.33394953 101.69970703 69.63647461 C91.97654846 65.0098325 82.30180641 60.28511894 72.625 55.5625 C57.77682112 48.31847787 42.91626881 41.10311722 28 34 C26.68080566 33.37134033 26.68080566 33.37134033 25.33496094 32.72998047 C22.89134093 31.56707505 20.44616293 30.40754531 18 29.25 C17.29246582 28.91395752 16.58493164 28.57791504 15.85595703 28.23168945 C13.04409474 26.67406188 13.04409474 26.67406188 10 26 Z " fill="#000000" transform="translate(280,256)"/>
<path d="M0 0 C2.4375 0.9375 2.4375 0.9375 4 3 C5.31031775 7.44480336 5.58476526 10.77962032 3.5625 15 C0.16594623 17.65096879 -2.70158221 18.46054476 -7 18 C-9.85993478 16.23535939 -11.49782849 15.00434303 -13 12 C-13.48602588 7.70677141 -13.46241608 5.67917361 -11 2.0625 C-6.86686529 -0.77903011 -4.95095859 -0.62869315 0 0 Z " fill="#000000" transform="translate(384,278)"/>
<path d="M0 0 C3.14674823 2.74331897 3.89954133 4.37492386 4.5625 8.5 C4 12 4 12 2 14.9375 C-1.33588599 17.23092162 -3.09984094 17.75815509 -7.0625 17.48046875 C-10.5685303 16.61102978 -12.01216563 14.91963173 -14 12 C-14.68577608 7.73294881 -14.50023114 5.79347009 -12.1875 2.125 C-8.28149586 -1.66940403 -5.0774203 -1.24708569 0 0 Z " fill="#000000" transform="translate(66,194)"/>
<path d="M0 0 C2.4375 0.9375 2.4375 0.9375 4 3 C5.31031775 7.44480336 5.58476526 10.77962032 3.5625 15 C0.16594623 17.65096879 -2.70158221 18.46054476 -7 18 C-9.85993478 16.23535939 -11.49782849 15.00434303 -13 12 C-13.48602588 7.70677141 -13.46241608 5.67917361 -11 2.0625 C-6.86686529 -0.77903011 -4.95095859 -0.62869315 0 0 Z " fill="#000000" transform="translate(108,102)"/>
<path d="M0 0 C2.69990662 1.79993774 4.5418865 3.083773 6 6 C6.43023798 9.87214182 6.31669086 11.52496371 4.125 14.8125 C1.42055063 17.59649199 0.57733296 17.93464155 -3.3125 18.375 C-7 18 -7 18 -9.9375 16 C-12.79117716 11.84919686 -12.7099846 9.9698922 -12 5 C-8.53870498 0.50031647 -5.60476862 -0.54948712 0 0 Z " fill="#000000" transform="translate(280,373)"/>
<path d="M0 0 C2.93052231 1.99524923 4.64521503 3.42836485 5.4453125 6.97265625 C5.64529931 10.53908774 5.30896766 12.59834205 3.125 15.4375 C-0.41699942 18.04191134 -2.58936125 18.43241556 -7 18 C-9.69990662 16.20006226 -11.5418865 14.916227 -13 12 C-13.43023798 8.12785818 -13.31669086 6.47503629 -11.125 3.1875 C-7.5841408 -0.45750212 -5.02152545 -0.5106636 0 0 Z " fill="#000000" transform="translate(83,293)"/>
<path d="M0 0 C2.75329021 1.79562405 4.52627461 3.05254922 6 6 C6.43023798 9.87214182 6.31669086 11.52496371 4.125 14.8125 C1.56894626 17.44373179 0.77721341 17.94931217 -2.875 18.1875 C-5.94628429 18.00322294 -7.48618314 17.7058043 -10 16 C-12.4596 12.3106 -12.7996897 9.28167192 -12 5 C-8.62505893 0.09099481 -5.84787119 -0.93983644 0 0 Z " fill="#000000" transform="translate(395,228)"/>
<path d="M0 0 C2.89839328 1.54580975 4.54079398 2.72116462 5.671875 5.87109375 C6.41273528 9.79024461 6.33323283 11.459933 4.1875 14.9375 C1.41934501 17.54747471 0.50869523 17.94241186 -3.3125 18.375 C-7 18 -7 18 -9.9375 16 C-12.79117716 11.84919686 -12.7099846 9.9698922 -12 5 C-8.53870498 0.50031647 -5.60476862 -0.54948712 0 0 Z " fill="#000000" transform="translate(63,219)"/>
<path d="M0 0 C3.00808769 2.63207673 3.88934188 4.09629201 4.375 8.0625 C4.00950778 10.9255224 3.60997354 12.62740741 2 15 C-1.69329658 17.46219772 -4.7149344 17.79198683 -9 17 C-11.99028679 15.00647547 -13.57809415 13.59744505 -14.51171875 10.0625 C-14.87264231 5.82766355 -14.25691211 4.31471734 -11.5 0.9375 C-7.7262185 -1.70057001 -4.22533956 -1.62720524 0 0 Z " fill="#000000" transform="translate(397,203)"/>
<path d="M0 0 C2.43119623 1.87015094 3.64069173 3.28138345 5 6 C5.43023798 9.87214182 5.31669086 11.52496371 3.125 14.8125 C0.61855093 17.39266816 -0.25461673 17.91717964 -3.8125 18.3125 C-7.7307645 17.92835642 -9.21293267 16.70743683 -12 14 C-13.56935594 10.86128812 -13.35201103 8.46144178 -13 5 C-9.28222104 -0.46048784 -6.17499257 -0.8821418 0 0 Z " fill="#000000" transform="translate(392,177)"/>
<path d="M0 0 C2.91963173 1.98783437 4.61102978 3.4314697 5.48046875 6.9375 C5.75815509 10.90015906 5.23092162 12.66411401 2.9375 16 C-0.76272533 18.51930235 -2.6031656 18.7066341 -7 18 C-9.875 16.4375 -9.875 16.4375 -12 14 C-13.14888518 10.05070721 -13.43129396 7.97041141 -11.75 4.1875 C-8.25986481 -0.17516899 -5.39027785 -0.65055077 0 0 Z " fill="#000000" transform="translate(171,59)"/>
<path d="M0 0 C4.63235294 2.26470588 4.63235294 2.26470588 6 5 C6.44198895 11.85082873 6.44198895 11.85082873 5.0625 15.4375 C1.69663661 17.98739651 -1.84747359 18.28412023 -6 18 C-9 16.5625 -9 16.5625 -11 14 C-11.96206171 11.26751704 -12.30914111 8.88531702 -12 6 C-8.70553407 0.66069315 -6.16699815 -0.48368613 0 0 Z " fill="#000000" transform="translate(229,381)"/>
<path d="M0 0 C3 2.0625 3 2.0625 5 5 C5.66350721 9.12848931 5.43514338 11.19933618 3.4375 14.875 C0.23599794 17.66605308 -1.78105729 18 -6 18 C-9.57387602 16.41161066 -10.81089572 15.28365642 -13 12 C-13.50418234 7.36152243 -12.77954397 4.74169381 -10 1 C-6.77061633 -0.61469184 -3.49143247 -0.58079278 0 0 Z " fill="#000000" transform="translate(97,315)"/>
<path d="M0 0 C1.9375 1.0625 1.9375 1.0625 3 3 C3.90901828 6.62066601 4.38514249 9.78038212 3.25 13.375 C2 15 2 15 -1 17 C-5.86581934 17.5493667 -7.8976444 17.73490373 -12 15 C-14.20619721 11.69070418 -14.81751114 9.8517803 -14.54296875 5.94140625 C-13.76362929 3.15484716 -12.19702011 1.42922202 -9.85546875 -0.22265625 C-6.27673683 -1.72195657 -3.71125636 -0.97344429 0 0 Z " fill="#000000" transform="translate(393,254)"/>
<path d="M0 0 C2.4375 1.5625 2.4375 1.5625 4 4 C4.70476018 8.93332128 4.77041398 10.84437903 2 15 C-2.15562097 17.77041398 -4.06667872 17.70476018 -9 17 C-12.34238038 14.85744848 -12.89167954 13.39717502 -13.9375 9.5625 C-14.00779003 5.55596849 -13.53249114 4.05645482 -11 1 C-7.44544736 -1.79286279 -4.2131487 -1.05328717 0 0 Z " fill="#000000" transform="translate(385,153)"/>
<path d="M0 0 C3.43250143 1.9401095 4.70166193 3.14227804 6 6.875 C6 10.72091174 5.05268165 12.7743574 3 16 C-0.75047482 18.50031654 -2.55856266 18.53603554 -7 18 C-9.91963173 16.01216563 -11.61102978 14.5685303 -12.48046875 11.0625 C-12.75815509 7.09984094 -12.23092162 5.33588599 -9.9375 2 C-6.23727467 -0.51930235 -4.3968344 -0.7066341 0 0 Z " fill="#000000" transform="translate(272,54)"/>
<path d="M0 0 C3.2292795 0.26910663 4.18532256 0.81490926 7 2.75 C9.51930235 6.45022533 9.7066341 8.2906656 9 12.6875 C7.20437595 15.44079021 5.94745078 17.21377461 3 18.6875 C-0.87214182 19.11773798 -2.52496371 19.00419086 -5.8125 16.8125 C-8.35330753 14.34428697 -8.8995948 13.4238048 -9.375 9.9375 C-8.72703849 4.32183358 -5.81632916 0.38555212 0 0 Z " fill="#000000" transform="translate(192,51.3125)"/>
<path d="M0 0 C2.89839328 1.54580975 4.54079398 2.72116462 5.671875 5.87109375 C6.41273528 9.79024461 6.33323283 11.459933 4.1875 14.9375 C1.41934501 17.54747471 0.50869523 17.94241186 -3.3125 18.375 C-7 18 -7 18 -9.9375 16 C-12.79117716 11.84919686 -12.7099846 9.9698922 -12 5 C-8.53870498 0.50031647 -5.60476862 -0.54948712 0 0 Z " fill="#000000" transform="translate(255,379)"/>
<path d="M0 0 C3.22668305 2.43793831 4.718528 4.15558401 6 8 C6 11.62603173 5.20839025 13.16064111 3 16 C-0.75047482 18.50031654 -2.55856266 18.53603554 -7 18 C-9.92488107 16.00859161 -11.66988282 14.58770642 -12.41015625 11.02734375 C-12.54869651 7.80477693 -12.21857831 5.40593114 -10.6875 2.5625 C-7.52595563 -0.3648559 -4.11957137 -0.49434856 0 0 Z " fill="#000000" transform="translate(204,379)"/>
<path d="M0 0 C2.5625 1.4375 2.5625 1.4375 4 4 C4.75220386 8.31527478 4.78950397 11.73679365 2.4375 15.5 C-0.81466794 17.50133412 -3.18732499 17.93311096 -7 18 C-9.88017082 16.78392788 -11.45238499 15.69696456 -13.375 13.25 C-14.31697802 9.85887913 -13.84752199 7.39008797 -13 4 C-9.91484945 -1.01336965 -5.3667251 -0.93548419 0 0 Z " fill="#000000" transform="translate(67,245)"/>
<path d="M0 0 C2.4375 1.5625 2.4375 1.5625 4 4 C4.70476018 8.93332128 4.77041398 10.84437903 2 15 C-1.30929582 17.20619721 -3.1482197 17.81751114 -7.05859375 17.54296875 C-9.84515284 16.76362929 -11.57077798 15.19702011 -13.22265625 12.85546875 C-14.72195657 9.27673683 -13.97344429 6.71125636 -13 3 C-9.629664 -1.74910982 -5.25074073 -1.19753736 0 0 Z " fill="#000000" transform="translate(71,169)"/>
<path d="M0 0 C1.875 1.0625 1.875 1.0625 3 3 C4.53571429 9.80102041 4.53571429 9.80102041 2.6875 13.9375 C1 16 1 16 -1 17 C-7.99869622 17.68839635 -7.99869622 17.68839635 -12 14.9375 C-14.51930235 11.23727467 -14.7066341 9.3968344 -14 5 C-10.15059139 -1.10595848 -6.85251731 -1.46839657 0 0 Z " fill="#000000" transform="translate(359,109)"/>
<path d="M0 0 C1.875 1.0625 1.875 1.0625 3 3 C4.53571429 9.80102041 4.53571429 9.80102041 2.6875 13.9375 C1 16 1 16 -1 17 C-7.99869622 17.68839635 -7.99869622 17.68839635 -12 14.9375 C-14.51930235 11.23727467 -14.7066341 9.3968344 -14 5 C-10.15059139 -1.10595848 -6.85251731 -1.46839657 0 0 Z " fill="#000000" transform="translate(128,85)"/>
<path d="M0 0 C2.56558333 2.94566975 2.89376615 6.15840945 2.6875 9.9375 C1.34798669 12.93545835 0.6319025 14.46529875 -2.3125 15.9375 C-9.31119622 16.62589635 -9.31119622 16.62589635 -13.3125 13.875 C-15.83180235 10.17477467 -16.0191341 8.3343344 -15.3125 3.9375 C-11.26154047 -2.48815995 -6.78620861 -3.11798774 0 0 Z " fill="#000000" transform="translate(75.3125,271.0625)"/>
<path d="M0 0 C2.4375 1.5625 2.4375 1.5625 4 4 C4.70476018 8.93332128 4.77041398 10.84437903 2 15 C-2.15562097 17.77041398 -4.06667872 17.70476018 -9 17 C-12.03437855 14.97708097 -12.81161043 13.57772802 -13.9375 10.125 C-14.0154753 6.2262352 -13.13513938 4.23952181 -11 1 C-7.51811815 -1.86011723 -4.17847912 -1.04461978 0 0 Z " fill="#000000" transform="translate(80,145)"/>
<path d="M0 0 C2.43119623 1.87015094 3.64069173 3.28138345 5 6 C5.43023798 9.87214182 5.31669086 11.52496371 3.125 14.8125 C0.61855093 17.39266816 -0.25461673 17.91717964 -3.8125 18.3125 C-7.7307645 17.92835642 -9.21293267 16.70743683 -12 14 C-13.3899408 11.2201184 -13.18488204 9.0813674 -13 6 C-10.8003658 -0.0912947 -5.98910018 -1.01428309 0 0 Z " fill="#000000" transform="translate(92,122)"/>
<path d="M0 0 C3.34265205 1.20706879 3.94704566 1.92056849 6 5 C6.6779661 12.11864407 6.6779661 12.11864407 4.125 15.4375 C0.58300058 18.04191134 -1.58936125 18.43241556 -6 18 C-8.69990662 16.20006226 -10.5418865 14.916227 -12 12 C-12.43023798 8.12785818 -12.31669086 6.47503629 -10.125 3.1875 C-6.78940571 -0.2462 -4.7066745 -0.28240047 0 0 Z " fill="#000000" transform="translate(147,70)"/>
<path d="M0 0 C2.56558333 2.94566975 2.89376615 6.15840945 2.6875 9.9375 C1.34798669 12.93545835 0.6319025 14.46529875 -2.3125 15.9375 C-9.28392857 16.62321429 -9.28392857 16.62321429 -13.3125 13.9375 C-16.08291398 9.78187903 -16.01726018 7.87082128 -15.3125 2.9375 C-11.10270528 -2.72394807 -6.16865368 -2.83424628 0 0 Z " fill="#000000" transform="translate(299.3125,64.0625)"/>
<path d="M0 0 C2.4375 1.5625 2.4375 1.5625 4 4 C4.70476018 8.93332128 4.77041398 10.84437903 2 15 C-2.15562097 17.77041398 -4.06667872 17.70476018 -9 17 C-12.34238038 14.85744848 -12.89167954 13.39717502 -13.9375 9.5625 C-14.00779003 5.55596849 -13.53249114 4.05645482 -11 1 C-7.44544736 -1.79286279 -4.2131487 -1.05328717 0 0 Z " fill="#000000" transform="translate(248,50)"/>
<path d="M0 0 C2.96326994 2.10548127 3.83222327 3.47429959 4.9375 6.9375 C5.0128328 10.62880732 4.24574926 12.1126081 2 15 C-1.7373856 17.4915904 -3.57331583 17.45793285 -8 17 C-10.9375 15.5625 -10.9375 15.5625 -13 13 C-13.65251312 9.88052937 -13.63689595 7.12136395 -13 4 C-9.13080779 -1.15892295 -6.13982847 -1.37616845 0 0 Z " fill="#000000" transform="translate(180,374)"/>
<path d="M0 0 C3.34238038 2.14255152 3.89167954 3.60282498 4.9375 7.4375 C5.0080987 11.46162581 4.60073089 12.96581396 2 16 C-0.90946943 17.7299548 -2.6749642 18.00663338 -6.0625 17.9375 C-9.87702012 16.72009996 -11.03689127 15.47319236 -13 12 C-13.7066341 7.6031656 -13.51930235 5.76272533 -11 2.0625 C-6.84919686 -0.79117716 -4.9698922 -0.7099846 0 0 Z " fill="#000000" transform="translate(156,364)"/>
<path d="M0 0 C3.19319107 2.24386399 3.90367244 3.64679896 4.9375 7.4375 C5.00698608 11.39820668 4.43366566 12.93538398 2 16 C-1.23176757 17.61588379 -4.50615283 17.57451407 -8 17 C-10.99380345 15.00413103 -12.63808488 13.61740829 -13.44140625 10.02734375 C-13.64568348 6.5019141 -13.29898582 4.40208438 -11.1875 1.5625 C-7.23814633 -1.25846691 -4.58583056 -1.21664892 0 0 Z " fill="#000000" transform="translate(134,351)"/>
<path d="M0 0 C2.36497439 1.86708505 3.66030715 3.32061431 5 6 C5.43023798 9.87214182 5.31669086 11.52496371 3.125 14.8125 C0.61855093 17.39266816 -0.25461673 17.91717964 -3.8125 18.3125 C-7.7307645 17.92835642 -9.21293267 16.70743683 -12 14 C-13.3899408 11.2201184 -13.18488204 9.0813674 -13 6 C-12.14986429 3.44959286 -11.46852322 2.34705424 -9.3125 0.75 C-6.02348006 -0.31670917 -3.43462094 -0.3679951 0 0 Z " fill="#000000" transform="translate(114,334)"/>
<path d="M0 0 C2.11607485 2.42956742 2.67014698 4.6699879 2.90625 7.86328125 C2.4773846 11.92984424 0.84587327 13.3592361 -2.3125 15.9375 C-5.17141004 16.73707444 -7.44719912 16.69426293 -10.3125 15.9375 C-13.30630345 13.94163103 -14.95058488 12.55490829 -15.75390625 8.96484375 C-15.95818348 5.4394141 -15.61148582 3.33958438 -13.5 0.5 C-8.89294595 -2.79075289 -5.00229748 -2.2983529 0 0 Z " fill="#000000" transform="translate(375.3125,131.0625)"/>
<path d="M0 0 C2.69990662 1.79993774 4.5418865 3.083773 6 6 C6.43023798 9.87214182 6.31669086 11.52496371 4.125 14.8125 C1.61855093 17.39266816 0.74538327 17.91717964 -2.8125 18.3125 C-6.7307645 17.92835642 -8.21293267 16.70743683 -11 14 C-12.54586876 10.90826248 -12.29359521 8.40570448 -12 5 C-8.47403586 0.53377875 -5.6371593 -0.55266268 0 0 Z " fill="#000000" transform="translate(339,90)"/>
<path d="M0 0 C3.09824425 2.01385876 3.79896026 3.38347812 4.9375 6.875 C5.01606404 10.80320182 4.20625381 12.76416108 2 16 C-0.92909251 17.82078724 -2.61842399 18.01557453 -6.0625 17.875 C-9.62874209 16.81271512 -10.961698 16.13584923 -13 13 C-13.77115706 8.71929144 -13.7076263 5.2614208 -11.5625 1.4375 C-7.7385792 -0.7076263 -4.28070856 -0.77115706 0 0 Z " fill="#000000" transform="translate(222,49)"/>
<path d="M0 0 C2.15454075 2.72449193 1.82180869 5.17890974 1.6796875 8.53515625 C1.34375 10.69921875 1.34375 10.69921875 -0.09375 13.26171875 C-3.9176708 15.40684505 -7.37554144 15.47037581 -11.65625 14.69921875 C-14.78410483 12.66611311 -15.46559494 11.2966046 -16.59375 7.76171875 C-16.66870915 4.08872054 -15.834992 2.60420809 -13.65625 -0.30078125 C-9.42775318 -4.52927807 -4.59739823 -3.61069248 0 0 Z " fill="#000000" transform="translate(322.65625,77.30078125)"/>
</svg>
